<svg width="140" height="40" viewBox="0 0 140 40" fill="none" xmlns="http://www.w3.org/2000/svg">
<g clip-path="url(#clip0_15_490)">
<path fill-rule="evenodd" clip-rule="evenodd" d="M137.218 10.0165V32.6544C137.218 35.0505 137.795 35.5497 140.005 35.5497V39.6395H124.062V35.5497C126.465 35.5497 126.945 35.0505 126.945 32.6544V10.0165C126.945 7.522 126.465 7.02366 124.062 7.02366V3.53125H140.005V7.02366C137.795 7.02366 137.218 7.42099 137.218 10.0165Z" fill="#E41F26"/>
<path fill-rule="evenodd" clip-rule="evenodd" d="M119.064 35.5505C117.43 35.3513 116.182 34.154 115.702 33.056L102.549 0.640625L93.5221 4.73102L96.2104 11.3138L87.4728 32.7575C86.5115 35.1485 84.7833 35.5505 83.5348 35.5505H81.7109V39.6403H95.249V35.5505C93.3301 35.5505 91.8893 35.3513 92.466 33.6541C92.9457 32.4589 93.8101 30.3637 93.8101 30.3637H103.989C103.989 30.3637 104.949 32.6558 105.139 33.2571C106.004 35.2529 103.796 35.6486 101.971 35.6486V39.6403H120.503V35.5505H119.064ZM95.3451 26.5733L98.8981 17.7938L102.451 26.5733H95.3451Z" fill="#E41F26"/>
<path fill-rule="evenodd" clip-rule="evenodd" d="M37.3518 35.5505C35.719 35.3513 34.4715 34.154 33.9908 33.056L20.8367 0.640625L11.8103 4.73102L14.4979 11.3138L5.76091 32.7575C4.80052 35.1485 3.07139 35.5505 1.82376 35.5505H0V39.6403H13.5384V35.5505C11.6175 35.5505 10.1777 35.3513 10.7547 33.6541C11.2341 32.4589 12.0979 30.3637 12.0979 30.3637H22.2753C22.2753 30.3637 23.2367 32.6558 23.4278 33.2571C24.2947 35.2529 22.0834 35.6486 20.2589 35.6486V39.6403H38.792V35.5505H37.3518ZM13.6348 26.5733L17.1878 17.7938L20.7395 26.5733H13.6348Z" fill="#E41F26"/>
<path fill-rule="evenodd" clip-rule="evenodd" d="M59.7261 35.5497C62.0307 35.5497 61.5513 34.3517 60.8795 33.3544L55.502 25.2764V32.6544C55.502 35.0505 55.982 35.5497 58.3832 35.5497V39.6395H42.5391V35.5497C44.7482 35.5497 45.3252 35.0505 45.3252 32.6544V10.0165C45.3252 7.522 44.7482 7.02366 42.5391 7.02366V3.53125H58.4792V7.02366C56.0777 7.02366 55.5983 7.522 55.5983 10.0165V17.4964L63.4721 9.51623C64.0485 8.7175 63.8559 7.02366 62.2248 7.02366H61.1663V3.53125H77.1062V7.02366C74.8025 7.02366 72.5934 6.72224 70.9609 8.51832L62.4159 17.3964L73.4581 33.753C74.7063 35.3496 76.2424 35.4506 77.8746 35.4506V39.6395H59.7261V35.5497Z" fill="#E41F26"/>
</g>
<defs>
<clipPath id="clip0_15_490">
<rect width="140" height="39" fill="white" transform="translate(0 0.640625)"/>
</clipPath>
</defs>
</svg>
