<svg width="177" height="67" viewBox="0 0 177 67" fill="none" xmlns="http://www.w3.org/2000/svg">
<path d="M81.2834 33.0274V56.7458H86.9997V33.0274H81.2834ZM70.994 23.9868H65.1143C64.461 23.9868 64.5699 24.5717 64.5699 24.5717C64.6788 25.3163 64.8421 26.5394 64.8421 29.0921C64.8421 34.7292 64.1344 42.8126 57.8192 50.5237L57.3837 51.0555C57.3837 51.0555 53.5728 25.1035 53.5184 24.6249C53.5184 24.6249 53.5184 24.0399 52.974 24.0399H47.0399C46.4955 24.0399 46.4955 24.6249 46.4955 24.6249C46.3321 27.603 44.6445 52.5977 25.9711 56.6394C29.9453 57.0649 34.7362 55.8417 38.9281 53.3423C44.1 50.2046 47.5843 45.5779 48.7275 40.2599C48.7275 40.2599 51.0141 54.1932 51.2863 57.384V57.5967L51.123 57.703C45.8966 60.4152 39.9625 61.9043 34.0284 61.9043C19.3293 61.9043 6.31788 53.3955 0.601562 40.4195C3.97691 55.6822 17.9139 66.7969 34.1918 66.7969C53.1917 66.7969 64.5155 51.2682 66.4754 40.2067C66.4754 40.2067 69.0341 56.3204 69.0885 56.8522H76.8736C76.7647 56.1608 71.5928 25.2099 71.5384 24.7313C71.5384 24.7313 71.5384 24.1463 70.994 24.1463V23.9868ZM5.17462 37.5477C5.17462 20.53 19.8737 6.70318 37.8938 6.70318C49.0542 6.70318 59.4525 12.1807 65.4954 21.0618C61.0857 8.93675 48.782 0.640625 35.0084 0.640625C17.2061 0.640625 2.72477 14.2016 2.72477 30.847C2.72477 35.4205 3.86803 39.8877 5.99124 43.9825C5.50127 41.9085 5.17462 39.7281 5.17462 37.6009V37.5477ZM141.604 36.4309C139.535 34.091 136.65 32.8679 133.166 32.8679C129.627 32.8679 126.633 33.9847 124.237 36.2182C121.896 38.3986 120.699 41.3235 120.699 44.9398C120.699 48.5029 121.842 51.3746 124.129 53.5018C126.415 55.629 129.736 56.6926 133.874 56.6926C141.931 56.6926 143.673 51.2682 144.326 49.5133L142.257 48.8751C140.406 52.1723 136.269 52.385 133.819 52.2255C132.077 52.1191 130.498 51.5341 129.246 50.6833C127.994 49.7792 127.123 48.5029 126.742 46.5352L126.633 45.7907H144.707C144.653 41.9085 143.618 38.7709 141.604 36.4841V36.4309ZM127.068 42.4403C126.796 42.4403 126.796 42.1744 126.796 42.0681C127.014 40.6854 127.558 39.6218 128.538 38.6645C129.627 37.5477 131.315 36.9096 133.111 36.9096C134.745 36.9096 136.051 37.3882 137.194 38.2923C138.12 39.09 138.773 40.2067 139.154 41.749C139.209 41.9085 139.318 42.3871 138.882 42.3871H127.068V42.4403ZM159.788 32.7615C152.928 32.7615 150.478 36.8564 149.716 38.7709C149.716 38.8241 149.444 39.4622 149.444 39.4622L151.73 40.2067C151.73 40.2067 153.2 36.0587 159.025 36.3246C164.905 36.5373 164.197 41.2703 164.197 42.0149C160.931 41.0576 156.303 41.164 153.255 42.4935C149.444 44.1953 148.845 47.5988 149.008 50.0983C149.171 53.8209 152.547 56.4267 156.902 56.6394C160.822 56.8522 162.564 56.0013 164.197 54.4591L164.143 56.6394H169.315V40.3131C169.424 37.4945 167.409 32.7083 159.788 32.7083V32.7615ZM164.143 51.1619C164.143 51.5341 164.034 51.8 163.707 51.9596C162.727 52.4382 160.659 53.0764 158.1 52.9168C155.432 52.7041 154.398 50.8428 154.235 50.0451C154.18 49.726 153.581 46.2693 157.011 45.2057C159.243 44.5143 162.074 44.9398 163.598 45.3652C164.034 45.4716 164.143 45.7375 164.143 46.2693V51.2151V51.1619ZM86.6186 23.9868H81.8822C81.1745 23.9868 81.2834 24.6781 81.2834 24.6781V29.677H87.1086V24.6249C87.1086 24.6249 87.163 24.0399 86.5641 24.0399L86.6186 23.9868ZM115.69 23.9868H110.845C110.355 23.9868 110.355 24.5186 110.355 24.5186V34.2506L109.647 33.8783C108.885 33.506 108.123 33.2401 107.306 33.0806C106.49 32.921 105.51 32.8679 104.421 32.8679C100.61 32.8679 97.5068 33.9315 95.2203 36.1119C92.9882 38.2391 91.7905 41.3235 91.7905 45.0993C91.7905 48.4497 92.7704 51.2682 94.6759 53.5018C96.5813 55.6822 99.3578 56.799 103.005 56.799C108.232 56.799 110.3 53.7145 110.3 53.7145V56.6926H116.18V51.1087V24.5717C116.18 24.5717 116.18 23.9868 115.69 23.9868ZM110.028 50.2578C109.484 50.7364 108.776 51.1087 107.905 51.4278C106.98 51.8 105.891 51.9596 104.693 51.9596C102.733 51.9596 101.154 51.3214 100.011 50.0451C98.8679 48.7688 98.3234 46.9075 98.3234 44.408C98.3234 41.9617 98.8679 40.1536 99.9022 39.0368C100.991 37.8668 102.624 37.2818 104.802 37.2818C105.945 37.2818 107.034 37.4414 108.014 37.8136C108.885 38.1327 109.538 38.4518 110.028 38.8772C110.192 39.0368 110.355 39.3027 110.355 39.6749V49.4069C110.355 49.7792 110.192 50.0451 110.028 50.2046V50.2578ZM172.853 20.0514C170.839 20.0514 169.315 21.5405 169.315 23.5081C169.315 25.4226 170.839 26.9649 172.853 26.9649C174.868 26.9649 176.392 25.4758 176.392 23.5081C176.392 21.5937 174.868 20.0514 172.853 20.0514ZM172.853 20.53C174.541 20.53 175.848 21.8596 175.848 23.5081C175.848 25.1567 174.596 26.4862 172.853 26.4862C171.166 26.4862 169.859 25.1567 169.859 23.5081C169.859 21.8596 171.111 20.53 172.853 20.53ZM172.091 23.7209H172.962L174.106 25.4758H174.704L173.507 23.7209C174.051 23.6145 174.541 23.2954 174.541 22.6041C174.541 21.9127 174.16 21.4873 173.234 21.4873H171.656V25.4758H172.146V23.7209H172.091ZM172.091 23.2954V21.9127H173.017C173.507 21.9127 173.997 22.0191 173.997 22.6041C173.997 23.2954 173.398 23.2954 172.799 23.2954H172.146H172.091Z" fill="#00B0F0"/>
</svg>
