<svg width="198" height="34" viewBox="0 0 198 34" fill="none" xmlns="http://www.w3.org/2000/svg">
<g clip-path="url(#clip0_15_496)">
<path d="M0.0078125 33.1514V4.6875H39.2117C39.2117 4.6875 44.4088 5.89873 44.6976 11.3493V33.1514H28.8116V16.7998C28.8116 16.7998 28.9329 14.3774 23.6144 14.3774H15.8187V33.1514H0.0078125Z" fill="#FF0000"/>
<path d="M65.8095 4.6875H49.9062V33.1454H65.8095V4.6875Z" fill="#FF0000"/>
<path d="M186.497 4.6875H170.594V33.1454H186.497V4.6875Z" fill="#FF0000"/>
<path d="M86.6064 4.6875H70.7031V33.1454H86.6064V4.6875Z" fill="#FF0000"/>
<path d="M83.6406 14.2138L94.1793 4.6875H112.901V5.67465L101.143 15.4917V16.1457L114.598 32.0734V33.1454H95.3053L83.785 20.2821L83.6406 14.2138Z" fill="#FF0000"/>
<path d="M121.133 33.1441V7.2964C121.133 7.2964 121.231 4.68014 125.464 4.68014H161.313C161.779 4.64736 162.248 4.71226 162.69 4.87106C163.133 5.02986 163.541 5.27939 163.891 5.60513C164.241 5.93087 164.525 6.32632 164.728 6.76847C164.931 7.21062 165.048 7.69064 165.072 8.1806V33.1441H149.567V25.2711H136.944V33.1441H121.133Z" fill="#FF0000"/>
<path d="M136.943 17.8561V13.9075C136.943 13.9075 136.752 12.9204 138.635 12.7266H147.759C147.759 12.7266 149.266 12.8235 149.266 14.2043V17.838L136.943 17.8561Z" fill="white"/>
<path d="M191.719 7.50209V2.29985H193.919C194.259 2.28376 194.6 2.33302 194.924 2.4452C195.165 2.53284 195.369 2.70642 195.501 2.93575C195.639 3.17261 195.711 3.44538 195.709 3.72305C195.713 3.89483 195.685 4.06575 195.625 4.22587C195.566 4.38598 195.476 4.53209 195.363 4.6557C195.075 4.93778 194.704 5.10866 194.312 5.14019C194.454 5.20391 194.586 5.28965 194.704 5.39455C194.913 5.60294 195.097 5.83675 195.253 6.09101L196.113 7.50209H195.287L194.606 6.42409C194.415 6.10917 194.26 5.87298 194.133 5.70341C194.041 5.57057 193.93 5.45401 193.803 5.35821C193.712 5.29433 193.61 5.24723 193.503 5.21892C193.38 5.20621 193.256 5.20621 193.134 5.21892H192.377V7.52632L191.719 7.50209ZM192.377 4.60119H193.786C194.025 4.61007 194.263 4.57523 194.491 4.49824C194.648 4.44194 194.784 4.33355 194.877 4.18937C194.962 4.05007 195.006 3.8881 195.005 3.72305C195.009 3.60852 194.988 3.4945 194.944 3.38959C194.9 3.28468 194.834 3.19162 194.75 3.11743C194.52 2.93302 194.231 2.84654 193.942 2.87519H192.377V4.60119Z" fill="#FF0000"/>
<path d="M197.717 4.68462C197.717 5.52308 197.48 6.34271 197.036 7.03986C196.592 7.73701 195.961 8.28037 195.222 8.60123C194.483 8.9221 193.671 9.00605 192.886 8.84248C192.102 8.6789 191.382 8.27514 190.817 7.68227C190.251 7.08939 189.866 6.33402 189.71 5.51167C189.555 4.68933 189.635 3.83694 189.941 3.06231C190.246 2.28768 190.765 1.62559 191.429 1.15976C192.094 0.693943 192.876 0.445312 193.675 0.445312C194.747 0.445312 195.775 0.891953 196.533 1.68698C197.291 2.482 197.717 3.56029 197.717 4.68462Z" stroke="#FF0000" stroke-miterlimit="10"/>
</g>
<defs>
<clipPath id="clip0_15_496">
<rect width="198" height="33" fill="white" transform="translate(0 0.140625)"/>
</clipPath>
</defs>
</svg>
