<svg width="192" height="50" viewBox="0 0 192 50" fill="none" xmlns="http://www.w3.org/2000/svg">
<path fill-rule="evenodd" clip-rule="evenodd" d="M191.127 10.6875V16.4362C188.107 15.3119 185.418 14.7434 183.065 14.7434C181.672 14.7434 180.562 14.998 179.727 15.4901C178.893 15.9865 178.467 16.5974 178.467 17.3187C178.467 18.2775 179.409 19.1302 181.306 19.8939L186.786 22.5243C191.217 24.6074 193.415 27.3735 193.415 30.8482C193.415 33.7374 192.25 36.0412 189.897 37.7467C187.561 39.4692 184.416 40.3219 180.501 40.3219C178.695 40.3219 177.073 40.2456 175.632 40.0843C174.191 39.9317 172.535 39.6176 170.698 39.1679V33.152C174.066 34.2763 177.133 34.8448 179.895 34.8448C183.19 34.8448 184.829 33.9029 184.829 32.0022C184.829 31.0561 184.158 30.2925 182.794 29.6942L176.707 27.1359C174.462 26.1347 172.793 24.9214 171.7 23.4831C170.625 22.0322 170.078 20.3691 170.078 18.4684C170.078 15.8083 171.214 13.6658 173.459 12.0366C175.722 10.4202 178.725 9.60986 182.459 9.60986C183.672 9.60986 185.07 9.71588 186.619 9.91106C188.18 10.119 189.681 10.3735 191.127 10.6875Z" fill="#009999"/>
<path fill-rule="evenodd" clip-rule="evenodd" d="M18.7233 10.6875V16.4362C15.7034 15.3119 13.0191 14.7434 10.666 14.7434C9.2679 14.7434 8.1624 14.998 7.3278 15.4901C6.4933 15.9865 6.0674 16.5974 6.0674 17.3187C6.0674 18.2775 7.0224 19.1302 8.9195 19.8939L14.4 22.5243C18.8136 24.6074 21.0162 27.3735 21.0162 30.8482C21.0162 33.7374 19.8461 36.0412 17.5102 37.7467C15.1571 39.4692 12.0297 40.3219 8.1022 40.3219C6.2954 40.3219 4.6693 40.2456 3.2282 40.0843C1.7871 39.9317 0.1481 39.6176 -1.7016 39.1679V33.152C1.6796 34.2763 4.7468 34.8448 7.4913 34.8448C10.7865 34.8448 12.4255 33.9029 12.4255 32.0022C12.4255 31.0561 11.7587 30.2925 10.4079 29.6942L4.3209 27.1359C2.0581 26.1347 0.389 24.9214 -0.6864 23.4831C-1.7791 22.0322 -2.3125 20.3691 -2.3125 18.4684C-2.3125 15.8083 -1.1854 13.6658 1.073 12.0366C3.3186 10.4202 6.3255 9.60986 10.0595 9.60986C11.2855 9.60986 12.6664 9.71588 14.2322 9.91106C15.7809 10.119 17.2822 10.3735 18.7233 10.6875Z" fill="#009999"/>
<path fill-rule="evenodd" clip-rule="evenodd" d="M25 10.1489H33.9263V39.7834H25V10.1489Z" fill="#009999"/>
<path fill-rule="evenodd" clip-rule="evenodd" d="M62.689 10.1489V15.6262H49.4265V22.1979H60.9296V27.1362H49.4265V34.0347H62.96V39.7834H40.8359V10.1489H62.689Z" fill="#009999"/>
<path fill-rule="evenodd" clip-rule="evenodd" d="M104.357 10.1489V39.7834H96.0238V20.2378L87.3777 40.0549H82.2328L73.9174 20.2378V39.7834H67.8906V10.1489H78.787L86.2248 28.2902L94.0068 10.1489H104.357Z" fill="#009999"/>
<path fill-rule="evenodd" clip-rule="evenodd" d="M133.111 10.1489V15.6262H119.921V22.1979H131.424V27.1362H119.921V34.0347H133.382V39.7834H111.258V10.1489H133.111Z" fill="#009999"/>
<path fill-rule="evenodd" clip-rule="evenodd" d="M164.428 10.1489V39.7834H154.96L144.335 20.7766V39.7834H138.312V10.1489H148.057L158.406 28.8291V10.1489H164.428Z" fill="#009999"/>
</svg>
