<svg width="187" height="44" viewBox="0 0 187 44" fill="none" xmlns="http://www.w3.org/2000/svg">
<path fill-rule="evenodd" clip-rule="evenodd" d="M10.1038 0.640625C16.505 0.640625 21.7067 10.2565 21.7067 22.0937C21.7067 33.929 16.505 43.6406 10.1038 43.6406C3.70172 43.6406 -1.5 33.929 -1.5 22.0937C-1.5 10.2565 3.70172 0.640625 10.1038 0.640625ZM14.4048 5.44948H10.3039C9.70371 6.00529 9.35334 6.74324 9.15328 7.66896L5.85269 30.2336C5.45256 33.007 5.75317 34.7627 6.80326 35.6866L9.35436 35.8743L9.50364 41.0531L14.2047 23.2992C14.3052 22.6495 14.2047 22.3735 13.9051 22.2796L9.05375 22.0955C8.25349 21.6336 8.25348 19.6902 9.10453 19.3203L12.1553 19.4142C12.3554 19.3203 12.4549 19.1362 12.5554 18.8583L14.4048 5.44948ZM47.6635 2.58219H34.91L34.5597 2.67421C30.7584 3.59993 28.1078 7.48307 26.6576 12.476C25.8573 15.2512 25.4074 18.3946 25.4074 21.5379C25.3649 24.7208 25.7609 27.8715 26.558 30.6937C27.9585 35.6847 30.6091 39.7556 34.5099 40.9592L34.91 41.0512H47.6137V21.9097H42.7624V31.8973H35.0603C33.0099 31.1556 31.6592 29.1201 30.9097 26.5326C30.5096 25.0549 30.3095 23.2973 30.3095 21.6336C30.3095 19.8761 30.5594 18.2124 30.9595 16.7328C31.71 14.2354 33.0597 12.2938 35.0106 11.7399H47.6635V2.58219ZM51.1144 11.83V40.4954L70.4193 40.3114V31.5274H56.6655V26.0707H68.3191V17.1947H56.6655V11.83H69.7195V2.9521H51.1144V11.83ZM88.3745 40.4935H93.6249V2.8601H88.2241V23.2015L78.5712 2.8601H73.5695V40.4935H78.9713V19.0424L88.3745 40.4935ZM97.026 11.83V40.4954L116.282 40.3114V31.5274H102.528V26.0707H114.182V17.1947H102.528V11.83H115.631V2.9521H97.026V11.83ZM169.944 30.8777V40.1274H188.5V30.8777H174.946V2.3043H169.944V30.8777ZM155.24 32.9132C156.891 32.9132 158.241 30.4158 158.241 27.4565C158.239 25.9864 157.922 24.5779 157.36 23.5385C156.797 22.4992 156.035 21.9136 155.24 21.9097C153.64 21.9097 152.291 24.4052 152.291 27.4565C152.291 30.4158 153.64 32.9132 155.24 32.9132ZM148.74 39.8495V20.1521C149.089 15.7132 150.39 12.7539 152.04 11.2742C152.991 10.4424 154.04 10.0724 155.141 10.0724C156.242 10.1645 157.34 10.6264 158.291 11.4582C159.993 13.0299 161.344 15.9892 161.643 20.1502V39.5678H166.344V19.4123C165.845 11.8281 163.443 6.46534 160.392 3.69193C158.742 2.21228 156.992 1.38045 155.191 1.38045C153.39 1.29044 151.604 2.02038 149.991 3.50604C146.99 6.18744 144.59 11.4582 144.039 19.3184L143.989 19.8742V39.8476L148.74 39.8495ZM135.986 26.2566L141.738 40.3095H135.437L129.784 26.7185H124.432V40.1274H119.333V2.8601H132.134L134.086 2.9521C137.636 2.86009 140.188 6.55923 140.437 16.0831C139.986 20.8919 138.537 24.4052 135.986 26.2566ZM124.432 10.9062V18.5805H130.184L133.086 18.7645C133.689 18.7681 134.28 18.4471 134.786 17.8406C135.986 14.4194 135.635 12.1079 133.635 10.9062H124.432Z" fill="#CC2229"/>
</svg>
