<svg width="180" height="47" viewBox="0 0 180 47" fill="none" xmlns="http://www.w3.org/2000/svg">
<path fill-rule="evenodd" clip-rule="evenodd" d="M66.3262 7.14011C66.1483 7.91364 65.6754 9.04577 62.8385 10.7732C55.6263 15.0025 43.6859 15.4195 34.3454 15.1808C19.981 14.8232 14.0102 11.4883 12.5328 10.1779C11.7051 9.40334 11.8231 8.68821 12.7687 7.97409C15.4287 5.94856 24.8281 5.23444 31.0347 5.23444C37.2413 5.23444 44.3356 6.66472 44.2756 8.33166C44.2756 10.0591 40.8469 10.2967 40.0782 10.3572C39.5464 10.4166 38.9557 10.1789 38.9557 9.88078C39.0746 9.40437 39.9013 9.40437 40.3151 9.28449C40.67 9.22507 40.8469 8.92692 40.8469 8.50993C40.8469 7.97409 39.3095 7.43825 38.069 7.25895C34.4634 6.30612 29.7332 6.60324 27.2512 6.78254C22.8179 7.08068 19.743 8.44948 19.743 9.52321C19.743 10.5344 22.344 13.5733 35.2901 13.9892C51.9607 14.5251 59.7637 11.6666 63.5473 8.92693C66.1483 6.90139 64.198 5.53259 61.715 4.28059C54.9176 1.06452 42.0305 0.76638 35.587 0.706956C28.3168 0.588108 16.1974 1.48152 11.0544 2.43435C9.93181 2.73249 10.1677 3.68532 11.7641 3.32775C13.6554 3.02961 26.8973 2.07678 33.3408 2.43435C39.7844 2.73249 47.6464 2.55319 54.9176 6.18727C56.1581 6.96081 56.5719 8.33166 54.6807 9.40334C52.8484 10.4156 48.1192 12.7383 37.0644 12.7977C26.8963 12.9176 25.5958 11.1891 24.7101 10.475C24.3553 10.1769 24.2963 9.28346 25.6558 8.56833C26.6028 8.13571 27.6308 7.91214 28.6706 7.91262C29.4983 7.91262 29.7932 8.80705 28.9065 8.86647C28.0199 9.10314 27.0742 9.22301 27.0742 9.87873C27.0742 10.4146 27.666 10.475 28.3158 10.7127C28.9065 10.9514 32.0393 11.6655 36.0008 11.6655C41.7936 11.6655 46.2279 10.8326 48.8289 9.28245C49.8925 8.74661 50.1874 7.01921 48.3561 6.42395C45.5182 5.47112 40.4341 3.80212 29.8532 3.80212C22.583 3.80212 9.04616 4.93425 5.14364 6.00593C3.78416 6.42292 0.651367 7.31633 0.651367 8.9843C0.651367 10.6512 2.77955 11.4258 3.78518 11.7834C9.52 13.8089 25.7158 16.2504 32.1013 16.3098C49.8945 16.4881 59.8847 14.9994 66.0323 9.69841C66.5052 9.10212 67.3328 8.20974 67.4508 7.3153C67.5677 6.12785 66.5631 6.0674 66.3262 7.14011ZM49.2417 19.2903C53.675 19.2903 54.8576 19.1724 56.6899 18.695V31.2037C58.2863 28.5225 60.3545 28.5225 62.7196 28.5225C64.7288 28.5225 67.3308 30.3697 67.3308 34.4792V39.7229C67.3308 43.0567 67.5088 44.3671 69.6949 44.3671H69.7539V45.9163H60.4734V44.3671C62.1278 44.3671 62.2468 42.4625 62.2468 40.9134L62.3057 39.7229V34.6595C62.3057 32.5151 61.596 31.2642 60.2365 31.2642C57.4576 31.2642 56.6899 33.5274 56.6899 36.5058V40.2587C56.8078 42.7617 56.6899 44.3692 58.7581 44.3692V45.9183H49.0638V44.3692C51.133 44.3692 51.6648 43.1787 51.6648 40.855V23.1036C51.6648 21.3752 51.7238 20.9592 50.4822 21.1969C48.8859 21.6734 48.413 22.5073 47.7033 24.7111L40.7869 46.7503H39.2495L33.9906 31.8594L28.6106 46.7503H27.0732L17.4389 23.2225C16.8471 21.3158 15.3697 21.1375 13.4774 21.0187V19.2903H25.6558V21.0187H25.1819C23.8825 21.0187 23.9414 21.4346 23.9414 22.2686C23.9414 22.745 24.0004 23.162 24.3553 24.413L29.5573 38.7075L33.1039 28.7018L31.6265 25.0083C30.7398 22.1487 30.5029 21.0176 27.784 21.0176V19.2892H38.7787V21.0176L38.188 21.0771C37.3013 21.1959 37.1834 21.6129 37.1834 22.4469C37.1834 22.8639 37.2423 23.1026 37.5972 24.1743L41.7356 37.6953L46.3469 22.9838C46.6428 21.5545 45.2233 21.0187 44.4556 20.9582V19.2903H49.2417ZM79.5081 23.58C79.5081 25.1281 78.2076 26.4396 76.6113 26.4396C75.0749 26.4396 73.8333 25.1292 73.8333 23.58C73.8333 21.9715 75.1338 20.7205 76.6113 20.7205C78.2076 20.7205 79.5081 21.9715 79.5081 23.58ZM71.7651 45.9163H81.5184V44.2493C79.3902 44.2493 79.2123 43.1766 79.2123 39.7813V28.4046C77.6169 28.9405 75.6067 28.9999 71.3503 28.9999V30.7273H72.059C73.9513 30.7273 74.2462 32.7539 74.2462 32.8123V39.7813C74.2462 43.1172 73.9503 44.2493 71.7641 44.2493L71.7651 45.9163ZM90.9178 30.131C92.5142 28.1659 95.1742 28.7612 95.4101 28.7612C97.1244 28.7612 98.01 30.6085 98.01 31.8594C98.01 33.5868 96.8875 34.8962 95.3511 34.8962C93.8737 34.8962 92.7511 33.9434 92.7511 32.4537C92.7511 31.9783 92.8091 31.6801 92.985 31.4414C93.1639 31.2631 93.1639 31.2037 93.1639 31.1433C93.1639 31.0839 93.2239 30.6679 93.1039 30.6679C92.868 30.6679 92.4542 30.4292 91.9224 31.1433C90.9768 32.2754 90.9178 33.2282 90.9178 34.7169V41.8652C91.0347 42.6398 91.2137 43.5321 91.9824 44.0106C92.3952 44.2483 92.4552 44.3671 93.3409 44.3671V45.9163H83.5876V44.2493C85.7158 44.2493 85.8937 43.235 85.8937 39.8991V32.7528C85.8937 30.6085 84.8891 30.7263 83.0558 30.7263V29.0593C87.1942 29.0593 88.9076 28.9989 90.9178 28.5829V30.131ZM176.515 40.1388C176.515 43.4727 177.224 44.0106 179.353 44.3067V45.7954H168.593V44.2483C170.722 44.0106 171.431 43.4717 171.431 40.1378V23.4007C171.431 21.7328 170.426 20.9582 169.185 20.8988L168.593 20.9582V19.2308C172.791 19.2308 174.386 19.2902 176.515 18.7544V40.1388ZM159.253 28.4641C154.288 28.4641 150.564 31.9783 150.564 37.3971C150.564 42.7596 154.111 46.4521 159.195 46.4521C164.337 46.4521 167.646 42.8785 167.646 37.4576C167.647 32.0982 164.337 28.4641 159.253 28.4641ZM162.032 41.8058C162.032 43.4143 160.79 44.6653 159.254 44.6653C157.717 44.6653 156.418 43.4143 156.418 41.8058V32.7528C156.418 31.2037 157.716 29.9527 159.254 29.9527C160.791 29.9527 162.032 31.2037 162.032 32.7528V41.8058ZM106.168 40.1388C106.168 43.4727 106.879 44.0106 109.006 44.3067V45.7954H98.248V44.2483C100.375 44.0106 101.144 43.4717 101.144 40.1378V23.4007C101.086 21.7328 100.079 20.9582 98.8398 20.8988L98.248 20.9582V19.2308C102.504 19.2308 104.041 19.2902 106.168 18.7544V40.1388Z" fill="black"/>
</svg>
