<svg width="187" height="56" viewBox="0 0 187 56" fill="none" xmlns="http://www.w3.org/2000/svg">
<rect x="5.5" y="0.699951" width="54" height="54" rx="27" stroke="#0B1826"/>
<path d="M52.3536 27.548C52.5488 27.3527 52.5488 27.0361 52.3536 26.8409L49.1716 23.6589C48.9763 23.4636 48.6597 23.4636 48.4645 23.6589C48.2692 23.8542 48.2692 24.1707 48.4645 24.366L51.2929 27.1944L48.4645 30.0229C48.2692 30.2181 48.2692 30.5347 48.4645 30.73C48.6597 30.9252 48.9763 30.9252 49.1716 30.73L52.3536 27.548ZM0 27.6944H52V26.6944H6.22046e-08L0 27.6944Z" fill="#0B1826"/>
<path d="M85.888 31.2V22.8H87.088V26.448L90.448 22.8H91.948L88.84 26.136L92.008 31.2H90.544L87.976 27.072L87.088 28.02V31.2H85.888ZM95.3605 31.2V22.8H96.5605L100.845 29.244V22.8H102.045V31.2H100.845L96.5605 24.756V31.2H95.3605ZM109.689 31.344C108.897 31.344 108.197 31.164 107.589 30.804C106.989 30.436 106.517 29.928 106.173 29.28C105.837 28.624 105.669 27.864 105.669 27C105.669 26.144 105.837 25.392 106.173 24.744C106.517 24.088 106.989 23.576 107.589 23.208C108.197 22.84 108.897 22.656 109.689 22.656C110.497 22.656 111.201 22.84 111.801 23.208C112.409 23.576 112.881 24.088 113.217 24.744C113.553 25.392 113.721 26.144 113.721 27C113.721 27.864 113.553 28.624 113.217 29.28C112.881 29.928 112.409 30.436 111.801 30.804C111.201 31.164 110.497 31.344 109.689 31.344ZM109.689 30.276C110.257 30.276 110.749 30.144 111.165 29.88C111.589 29.616 111.917 29.24 112.149 28.752C112.381 28.264 112.497 27.68 112.497 27C112.497 26.32 112.381 25.736 112.149 25.248C111.917 24.76 111.589 24.388 111.165 24.132C110.749 23.868 110.257 23.736 109.689 23.736C109.129 23.736 108.637 23.868 108.213 24.132C107.797 24.388 107.473 24.76 107.241 25.248C107.009 25.736 106.893 26.32 106.893 27C106.893 27.68 107.009 28.264 107.241 28.752C107.473 29.24 107.797 29.616 108.213 29.88C108.637 30.144 109.129 30.276 109.689 30.276ZM118.705 31.2L116.437 22.8H117.721L119.425 29.796L121.381 22.8H122.713L124.609 29.82L126.337 22.8H127.621L125.293 31.2H123.901L122.017 24.516L120.085 31.2H118.705ZM136.239 31.2V22.8H137.655L140.451 28.488L143.235 22.8H144.651V31.2H143.451V24.912L140.907 30.048H139.983L137.439 24.936V31.2H136.239ZM152.302 31.344C151.51 31.344 150.81 31.164 150.202 30.804C149.602 30.436 149.13 29.928 148.786 29.28C148.45 28.624 148.282 27.864 148.282 27C148.282 26.144 148.45 25.392 148.786 24.744C149.13 24.088 149.602 23.576 150.202 23.208C150.81 22.84 151.51 22.656 152.302 22.656C153.11 22.656 153.814 22.84 154.414 23.208C155.022 23.576 155.494 24.088 155.83 24.744C156.166 25.392 156.334 26.144 156.334 27C156.334 27.864 156.166 28.624 155.83 29.28C155.494 29.928 155.022 30.436 154.414 30.804C153.814 31.164 153.11 31.344 152.302 31.344ZM152.302 30.276C152.87 30.276 153.362 30.144 153.778 29.88C154.202 29.616 154.53 29.24 154.762 28.752C154.994 28.264 155.11 27.68 155.11 27C155.11 26.32 154.994 25.736 154.762 25.248C154.53 24.76 154.202 24.388 153.778 24.132C153.362 23.868 152.87 23.736 152.302 23.736C151.742 23.736 151.25 23.868 150.826 24.132C150.41 24.388 150.086 24.76 149.854 25.248C149.622 25.736 149.506 26.32 149.506 27C149.506 27.68 149.622 28.264 149.854 28.752C150.086 29.24 150.41 29.616 150.826 29.88C151.25 30.144 151.742 30.276 152.302 30.276ZM159.942 31.2V22.8H162.786C163.45 22.8 163.994 22.912 164.418 23.136C164.842 23.36 165.154 23.66 165.354 24.036C165.562 24.404 165.666 24.824 165.666 25.296C165.666 25.744 165.562 26.16 165.354 26.544C165.154 26.92 164.838 27.224 164.406 27.456C163.974 27.68 163.422 27.792 162.75 27.792H161.142V31.2H159.942ZM164.358 31.2L162.546 27.468H163.866L165.75 31.2H164.358ZM161.142 26.88H162.714C163.306 26.88 163.738 26.736 164.01 26.448C164.29 26.152 164.43 25.776 164.43 25.32C164.43 24.856 164.294 24.488 164.022 24.216C163.75 23.944 163.31 23.808 162.702 23.808H161.142V26.88ZM169.402 31.2V22.8H174.706V23.784H170.602V26.472H174.346V27.432H170.602V30.216H174.706V31.2H169.402Z" fill="#0B1826"/>
</svg>
